<svg xmlns="http://www.w3.org/2000/svg" id="Buyers-flow" width="156.928" height="67.9" viewBox="0 0 156.928 67.9">
    <defs>
        <style>
            .cls-1{fill:#4d4e4c}.cls-1,.cls-2,.cls-3{fill-rule:evenodd}.cls-2{fill:#344175}.cls-3{fill:#fffffe}
        </style>
    </defs>
    <g id="POS:-Quotes---Health---1440">
        <g id="STAR-HEALTH-LOGO-web">
            <path id="Fill-1" d="M23.989 24.568a.925.925 0 0 0-.1-.449.706.706 0 0 0-.247-.268.808.808 0 0 0-.307-.113 2.1 2.1 0 0 0-.307-.025h-.542v1.768h.531a1.206 1.206 0 0 0 .436-.068.843.843 0 0 0 .294-.187.782.782 0 0 0 .182-.291 1.08 1.08 0 0 0 .059-.366m.617-.045a1.538 1.538 0 0 1-.108.6 1.29 1.29 0 0 1-.311.452 1.407 1.407 0 0 1-.5.289 2.082 2.082 0 0 1-.7.1h-.5v1.586a.072.072 0 0 1-.015.047.079.079 0 0 1-.045.034c-.023.007-.051.013-.091.022s-.084.008-.141.008-.1 0-.14-.008-.066-.015-.089-.022a.072.072 0 0 1-.047-.034.083.083 0 0 1-.013-.047v-4.069a.234.234 0 0 1 .07-.195.245.245 0 0 1 .161-.059h.943c.093 0 .184.007.271.013a2.129 2.129 0 0 1 .307.052 1.3 1.3 0 0 1 .368.145 1.2 1.2 0 0 1 .311.262 1.123 1.123 0 0 1 .2.364 1.455 1.455 0 0 1 .068.457" class="cls-1" transform="translate(23.927 25.063)"/>
            <path id="Fill-3" d="M26.111 25.142a1.022 1.022 0 0 0-.2-.7.743.743 0 0 0-.612-.25.787.787 0 0 0-.368.079.766.766 0 0 0-.26.2.952.952 0 0 0-.167.3 1.2 1.2 0 0 0-.062.36zm.565.164a.242.242 0 0 1-.068.191.225.225 0 0 1-.152.056h-2.013a2.24 2.24 0 0 0 .047.458.936.936 0 0 0 .173.352.8.8 0 0 0 .313.226 1.268 1.268 0 0 0 .469.08 1.706 1.706 0 0 0 .387-.04 2.171 2.171 0 0 0 .294-.077c.083-.032.154-.058.207-.08a.35.35 0 0 1 .118-.036.077.077 0 0 1 .045.012.107.107 0 0 1 .03.034.273.273 0 0 1 .015.069.781.781 0 0 1 0 .1.456.456 0 0 1 0 .077.261.261 0 0 1-.008.059.113.113 0 0 1-.017.045.254.254 0 0 1-.029.038.448.448 0 0 1-.112.065 2.461 2.461 0 0 1-.239.083 3.115 3.115 0 0 1-.338.071 2.332 2.332 0 0 1-.41.034 1.91 1.91 0 0 1-.662-.106 1.261 1.261 0 0 1-.478-.313 1.373 1.373 0 0 1-.29-.521 2.413 2.413 0 0 1-.1-.73 2.386 2.386 0 0 1 .1-.712 1.447 1.447 0 0 1 .294-.532 1.233 1.233 0 0 1 .465-.336 1.7 1.7 0 0 1 1.221 0 1.169 1.169 0 0 1 .415.313 1.343 1.343 0 0 1 .243.46 2.091 2.091 0 0 1 .074.565z" class="cls-1" transform="translate(26.064 25.641)"/>
            <path id="Fill-5" d="M27.829 24.109v.124a.729.729 0 0 1-.012.081.264.264 0 0 1-.026.044.062.062 0 0 1-.045.019.169.169 0 0 1-.064-.019.579.579 0 0 1-.087-.031l-.11-.026a.517.517 0 0 0-.133-.013.427.427 0 0 0-.169.034.621.621 0 0 0-.171.114 1.307 1.307 0 0 0-.191.2 7.256 7.256 0 0 0-.215.317v2.017a.084.084 0 0 1-.015.05.118.118 0 0 1-.043.031.277.277 0 0 1-.082.018.972.972 0 0 1-.142.01.852.852 0 0 1-.136-.01.354.354 0 0 1-.089-.018.125.125 0 0 1-.042-.031.13.13 0 0 1-.009-.05v-3.063a.151.151 0 0 1 .007-.044.088.088 0 0 1 .042-.035.316.316 0 0 1 .078-.02.815.815 0 0 1 .125-.008.789.789 0 0 1 .123.006.316.316 0 0 1 .078.02.106.106 0 0 1 .038.035.078.078 0 0 1 .01.044v.448a2.4 2.4 0 0 1 .239-.3 1.185 1.185 0 0 1 .207-.181.667.667 0 0 1 .2-.094.82.82 0 0 1 .2-.022h.1a.8.8 0 0 1 .116.021.505.505 0 0 1 .108.033.15.15 0 0 1 .072.031.216.216 0 0 1 .029.031.2.2 0 0 1 .011.04.449.449 0 0 1 .007.069v.125" class="cls-1" transform="translate(28.449 25.641)"/>
            <path id="Fill-7" d="M29.628 26.139a.94.94 0 0 1-.087.416.826.826 0 0 1-.247.312 1.109 1.109 0 0 1-.381.192 1.776 1.776 0 0 1-.484.064 1.739 1.739 0 0 1-.313-.025 1.653 1.653 0 0 1-.266-.067 1.356 1.356 0 0 1-.2-.08.455.455 0 0 1-.12-.078.2.2 0 0 1-.053-.095.55.55 0 0 1-.019-.166.653.653 0 0 1 .006-.111.409.409 0 0 1 .019-.071c.007-.017.013-.031.028-.038a.068.068 0 0 1 .04-.013.211.211 0 0 1 .11.043c.051.031.112.066.182.1a2.144 2.144 0 0 0 .254.1 1.136 1.136 0 0 0 .338.044.894.894 0 0 0 .259-.032.569.569 0 0 0 .2-.086.452.452 0 0 0 .133-.15.5.5 0 0 0 .045-.22.34.34 0 0 0-.069-.216.578.578 0 0 0-.174-.159 1.55 1.55 0 0 0-.243-.121c-.091-.033-.184-.07-.283-.11s-.19-.083-.283-.13a1.159 1.159 0 0 1-.247-.178.849.849 0 0 1-.175-.254.884.884 0 0 1-.064-.352.919.919 0 0 1 .068-.345.858.858 0 0 1 .209-.289 1.032 1.032 0 0 1 .351-.2 1.427 1.427 0 0 1 .486-.072 1.5 1.5 0 0 1 .245.016c.082.017.155.031.22.051a1.523 1.523 0 0 1 .171.067.791.791 0 0 1 .1.064.288.288 0 0 1 .049.05.109.109 0 0 1 .015.045.335.335 0 0 1 .012.064.677.677 0 0 1 0 .093.836.836 0 0 1 0 .1.191.191 0 0 1-.019.069.086.086 0 0 1-.029.038c-.009.011-.021.011-.036.011a.184.184 0 0 1-.089-.036.828.828 0 0 0-.15-.079 1.342 1.342 0 0 0-.216-.082 1.013 1.013 0 0 0-.283-.039.921.921 0 0 0-.252.033.505.505 0 0 0-.179.091.4.4 0 0 0-.106.144.442.442 0 0 0-.036.175.362.362 0 0 0 .07.223.6.6 0 0 0 .177.158 1.19 1.19 0 0 0 .248.123c.093.036.188.072.283.112s.192.081.289.129a1.13 1.13 0 0 1 .248.175.824.824 0 0 1 .175.246.8.8 0 0 1 .066.34" class="cls-1" transform="translate(29.998 25.641)"/>
            <path id="Fill-9" d="M31.687 25.445a2.385 2.385 0 0 0-.047-.472 1.2 1.2 0 0 0-.15-.386.793.793 0 0 0-.294-.264.9.9 0 0 0-.45-.1.942.942 0 0 0-.428.089.821.821 0 0 0-.3.25 1.152 1.152 0 0 0-.171.382 1.873 1.873 0 0 0-.056.484 2.251 2.251 0 0 0 .045.475 1.048 1.048 0 0 0 .156.384.759.759 0 0 0 .285.262 1.1 1.1 0 0 0 .888.008.788.788 0 0 0 .3-.248 1.074 1.074 0 0 0 .171-.381 1.942 1.942 0 0 0 .057-.486m.58-.037a2.4 2.4 0 0 1-.1.688 1.5 1.5 0 0 1-.3.543 1.311 1.311 0 0 1-.489.355 1.676 1.676 0 0 1-.681.128 1.749 1.749 0 0 1-.658-.112 1.243 1.243 0 0 1-.467-.326 1.419 1.419 0 0 1-.281-.522 2.389 2.389 0 0 1-.091-.7 2.419 2.419 0 0 1 .1-.691 1.609 1.609 0 0 1 .292-.543 1.343 1.343 0 0 1 .485-.352 1.694 1.694 0 0 1 .687-.122 1.725 1.725 0 0 1 .657.111 1.167 1.167 0 0 1 .468.327 1.356 1.356 0 0 1 .279.522 2.277 2.277 0 0 1 .095.691" class="cls-1" transform="translate(31.905 25.641)"/>
            <path id="Fill-11" d="M34.126 26.97a.083.083 0 0 1-.013.05.1.1 0 0 1-.045.031.293.293 0 0 1-.082.018.9.9 0 0 1-.137.01.929.929 0 0 1-.139-.01.321.321 0 0 1-.087-.018.118.118 0 0 1-.044-.031.123.123 0 0 1-.016-.05v-1.792a1.942 1.942 0 0 0-.036-.423 1.048 1.048 0 0 0-.121-.276.491.491 0 0 0-.2-.176.62.62 0 0 0-.286-.062.7.7 0 0 0-.423.149 2.3 2.3 0 0 0-.444.44v2.14a.083.083 0 0 1-.012.05.143.143 0 0 1-.047.031.3.3 0 0 1-.083.018.9.9 0 0 1-.139.01.869.869 0 0 1-.135-.01.347.347 0 0 1-.087-.018.107.107 0 0 1-.046-.031.1.1 0 0 1-.009-.05v-3.063a.083.083 0 0 1 .009-.044c0-.015.023-.024.04-.035a.317.317 0 0 1 .078-.02 1.4 1.4 0 0 1 .251 0 .292.292 0 0 1 .078.02c.017.012.031.02.036.035a.085.085 0 0 1 .013.044v.407a1.839 1.839 0 0 1 .514-.423 1.1 1.1 0 0 1 .52-.133 1.19 1.19 0 0 1 .514.1.9.9 0 0 1 .338.279 1.19 1.19 0 0 1 .188.405 2.538 2.538 0 0 1 .053.561z" class="cls-1" transform="translate(34.404 25.641)"/>
            <path id="Fill-13" d="M35.529 25.576h-.478a1.783 1.783 0 0 0-.4.04.86.86 0 0 0-.283.114.525.525 0 0 0-.165.185.564.564 0 0 0-.054.248.486.486 0 0 0 .154.378.587.587 0 0 0 .423.144.793.793 0 0 0 .408-.113 1.77 1.77 0 0 0 .4-.343zm.558 1.4a.076.076 0 0 1-.025.06.226.226 0 0 1-.076.031.753.753 0 0 1-.142.012.762.762 0 0 1-.14-.012.149.149 0 0 1-.074-.031.067.067 0 0 1-.026-.06v-.3a1.477 1.477 0 0 1-.446.33 1.141 1.141 0 0 1-.522.12 1.4 1.4 0 0 1-.44-.063.957.957 0 0 1-.332-.182.828.828 0 0 1-.213-.292.973.973 0 0 1-.08-.4.889.889 0 0 1 .108-.446.876.876 0 0 1 .3-.319 1.574 1.574 0 0 1 .482-.187 2.984 2.984 0 0 1 .641-.064h.423v-.237a1.224 1.224 0 0 0-.038-.316.486.486 0 0 0-.119-.223.545.545 0 0 0-.218-.139 1.038 1.038 0 0 0-.324-.045 1.271 1.271 0 0 0-.374.05 1.591 1.591 0 0 0-.286.109c-.085.043-.154.076-.207.11a.309.309 0 0 1-.127.048.115.115 0 0 1-.049-.013.172.172 0 0 1-.032-.041.168.168 0 0 1-.023-.073.615.615 0 0 1-.007-.091 1.091 1.091 0 0 1 .01-.135.223.223 0 0 1 .06-.091.7.7 0 0 1 .157-.1 1.617 1.617 0 0 1 .26-.109 2.125 2.125 0 0 1 .67-.112 1.875 1.875 0 0 1 .561.071.932.932 0 0 1 .374.221.836.836 0 0 1 .207.358 1.8 1.8 0 0 1 .064.5z" class="cls-1" transform="translate(36.672 25.641)"/>
            <path id="Fill-15" d="M36.256 27.724a.1.1 0 0 1-.013.05.114.114 0 0 1-.045.031.328.328 0 0 1-.085.018.885.885 0 0 1-.139.01.931.931 0 0 1-.137-.01.309.309 0 0 1-.083-.018c-.025-.01-.04-.02-.044-.031a.073.073 0 0 1-.015-.05v-4.549a.058.058 0 0 1 .015-.044c0-.014.019-.027.044-.035a.3.3 0 0 1 .083-.021c.038 0 .083-.006.137-.006s.1 0 .139.006a.313.313 0 0 1 .085.021.089.089 0 0 1 .045.035.079.079 0 0 1 .013.044z" class="cls-1" transform="translate(38.991 24.888)"/>
            <path id="Fill-17" d="M39 24.153a.639.639 0 0 0 .026.186 1.09 1.09 0 0 0 .078.2 1.934 1.934 0 0 0 .131.221c.05.081.11.167.18.267.165-.094.3-.181.418-.257a1.839 1.839 0 0 0 .269-.226.678.678 0 0 0 .146-.219.561.561 0 0 0 .045-.233.521.521 0 0 0-.031-.188.573.573 0 0 0-.116-.161.628.628 0 0 0-.2-.11.863.863 0 0 0-.283-.043.89.89 0 0 0-.307.047.586.586 0 0 0-.2.124.466.466 0 0 0-.114.179.576.576 0 0 0-.04.212m-.393 2.369a.811.811 0 0 0 .057.324.722.722 0 0 0 .178.253.746.746 0 0 0 .288.167 1.274 1.274 0 0 0 .4.055 1.166 1.166 0 0 0 .268-.02 1.3 1.3 0 0 0 .256-.081 1.452 1.452 0 0 0 .229-.115 1.822 1.822 0 0 0 .2-.149c-.116-.1-.234-.207-.349-.317s-.231-.22-.339-.333-.213-.22-.315-.33-.193-.218-.275-.324a1.783 1.783 0 0 0-.285.218.977.977 0 0 0-.182.215.791.791 0 0 0-.1.215.9.9 0 0 0-.028.229m-.612.053a1.392 1.392 0 0 1 .049-.353 1.3 1.3 0 0 1 .163-.33 1.379 1.379 0 0 1 .286-.306 3.112 3.112 0 0 1 .419-.3 4.386 4.386 0 0 1-.231-.329 3.143 3.143 0 0 1-.163-.282 1.239 1.239 0 0 1-.087-.242.942.942 0 0 1-.027-.24 1.138 1.138 0 0 1 .07-.4.838.838 0 0 1 .231-.341 1.092 1.092 0 0 1 .4-.234 2.172 2.172 0 0 1 1.123-.023 1.063 1.063 0 0 1 .362.184.716.716 0 0 1 .216.285.936.936 0 0 1 .074.379 1.053 1.053 0 0 1-.064.368 1.069 1.069 0 0 1-.209.321 2.009 2.009 0 0 1-.366.313 5.753 5.753 0 0 1-.537.326c.076.093.162.189.251.291s.188.2.283.3.2.205.305.3.2.191.305.284a1.288 1.288 0 0 0 .12-.211 2.168 2.168 0 0 0 .1-.249 1.819 1.819 0 0 0 .059-.265 1.713 1.713 0 0 0 .023-.279v-.121a.159.159 0 0 1 .009-.056.1.1 0 0 1 .042-.039.316.316 0 0 1 .081-.022.954.954 0 0 1 .135-.007.929.929 0 0 1 .127.005.259.259 0 0 1 .087.014.076.076 0 0 1 .049.037.146.146 0 0 1 .015.071v.084a2.259 2.259 0 0 1-.032.375 2.64 2.64 0 0 1-.089.358 1.892 1.892 0 0 1-.139.338 2.121 2.121 0 0 1-.186.293c.1.083.19.151.266.206s.142.1.2.13a.616.616 0 0 0 .135.075.248.248 0 0 0 .085.018.44.44 0 0 0 .063 0 .07.07 0 0 1 .051.012.088.088 0 0 1 .029.052.58.58 0 0 1 .007.126v.137a.3.3 0 0 1-.012.074.127.127 0 0 1-.029.045.2.2 0 0 1-.078.031.783.783 0 0 1-.142.013.508.508 0 0 1-.146-.025.9.9 0 0 1-.194-.083c-.072-.04-.156-.1-.254-.162s-.207-.153-.338-.257a3.253 3.253 0 0 1-.3.213 1.99 1.99 0 0 1-.338.169 2.707 2.707 0 0 1-.372.11 2.233 2.233 0 0 1-.427.038 2.108 2.108 0 0 1-.406-.038 1.594 1.594 0 0 1-.355-.106 1.217 1.217 0 0 1-.291-.175 1.176 1.176 0 0 1-.22-.241 1.227 1.227 0 0 1-.14-.3 1.444 1.444 0 0 1-.049-.36" class="cls-1" transform="translate(41.505 24.958)"/>
            <path id="Fill-19" d="M45.052 27.042v.094a.2.2 0 0 1-.013.072.2.2 0 0 1-.021.056.673.673 0 0 1-.047.058 1.237 1.237 0 0 1-.14.1 1.767 1.767 0 0 1-.274.135 2.074 2.074 0 0 1-.37.111 2.041 2.041 0 0 1-.459.046 2.006 2.006 0 0 1-.772-.143 1.557 1.557 0 0 1-.586-.422 1.874 1.874 0 0 1-.376-.69A3.472 3.472 0 0 1 42 24.542a2.218 2.218 0 0 1 .395-.727 1.744 1.744 0 0 1 .605-.456 1.977 1.977 0 0 1 .787-.156 2.229 2.229 0 0 1 .706.128 1.274 1.274 0 0 1 .273.125 1.377 1.377 0 0 1 .165.115.5.5 0 0 1 .057.07.126.126 0 0 1 .021.056.568.568 0 0 1 .015.076.918.918 0 0 1 .006.106c0 .047 0 .082-.006.116a.378.378 0 0 1-.023.082.092.092 0 0 1-.032.046.075.075 0 0 1-.045.014.265.265 0 0 1-.134-.067 2.166 2.166 0 0 0-.22-.145 1.809 1.809 0 0 0-.326-.147 1.43 1.43 0 0 0-.465-.064 1.2 1.2 0 0 0-.533.116 1.168 1.168 0 0 0-.413.346 1.631 1.631 0 0 0-.264.556 3.029 3.029 0 0 0 0 1.49 1.528 1.528 0 0 0 .262.539 1.009 1.009 0 0 0 .414.326 1.346 1.346 0 0 0 .558.113 1.506 1.506 0 0 0 .459-.066 1.418 1.418 0 0 0 .334-.146 2.187 2.187 0 0 0 .228-.144.267.267 0 0 1 .14-.063.077.077 0 0 1 .042.007.083.083 0 0 1 .027.042.745.745 0 0 1 .017.078v.131" class="cls-1" transform="translate(45.725 25.035)"/>
            <path id="Fill-21" d="M46.008 25.576h-.478a1.8 1.8 0 0 0-.4.04.841.841 0 0 0-.283.114.457.457 0 0 0-.161.185.563.563 0 0 0 .095.626.592.592 0 0 0 .423.144.807.807 0 0 0 .412-.113 1.848 1.848 0 0 0 .393-.343zm.56 1.4a.078.078 0 0 1-.026.06.2.2 0 0 1-.074.031.86.86 0 0 1-.281 0 .168.168 0 0 1-.078-.031.076.076 0 0 1-.022-.06v-.3a1.533 1.533 0 0 1-.448.33 1.161 1.161 0 0 1-.522.12 1.386 1.386 0 0 1-.438-.063.969.969 0 0 1-.334-.182.786.786 0 0 1-.21-.292.938.938 0 0 1-.08-.4.9.9 0 0 1 .108-.446.866.866 0 0 1 .3-.319 1.578 1.578 0 0 1 .485-.187 3 3 0 0 1 .641-.064h.419v-.237a1.151 1.151 0 0 0-.036-.316.5.5 0 0 0-.121-.223.52.52 0 0 0-.216-.139 1.031 1.031 0 0 0-.325-.045 1.253 1.253 0 0 0-.374.05 1.624 1.624 0 0 0-.286.109c-.084.043-.154.076-.211.11a.285.285 0 0 1-.121.048.07.07 0 0 1-.045-.013.173.173 0 0 1-.04-.041.28.28 0 0 1-.023-.073v-.091a.547.547 0 0 1 .012-.135.183.183 0 0 1 .057-.091.7.7 0 0 1 .157-.1 1.834 1.834 0 0 1 .258-.109 1.948 1.948 0 0 1 .319-.081 1.822 1.822 0 0 1 .353-.031 1.843 1.843 0 0 1 .56.071.922.922 0 0 1 .376.221.816.816 0 0 1 .205.358 1.672 1.672 0 0 1 .066.5z" class="cls-1" transform="translate(48.123 25.641)"/>
            <path id="Fill-23" d="M47.969 24.109a1.2 1.2 0 0 1 0 .124.338.338 0 0 1-.013.081.076.076 0 0 1-.024.044.056.056 0 0 1-.044.019.16.16 0 0 1-.066-.019.744.744 0 0 1-.087-.031l-.112-.026a.485.485 0 0 0-.131-.013.443.443 0 0 0-.169.034.621.621 0 0 0-.171.114 1.305 1.305 0 0 0-.19.2c-.063.088-.139.192-.218.317v2.017a.123.123 0 0 1-.012.05.126.126 0 0 1-.045.031.26.26 0 0 1-.083.018.934.934 0 0 1-.142.01.836.836 0 0 1-.135-.01.306.306 0 0 1-.085-.018.089.089 0 0 1-.045-.031.1.1 0 0 1-.012-.05v-3.063a.152.152 0 0 1 .007-.044.117.117 0 0 1 .044-.035.32.32 0 0 1 .078-.02.8.8 0 0 1 .127-.006.762.762 0 0 1 .123.006.363.363 0 0 1 .08.02.155.155 0 0 1 .036.035.084.084 0 0 1 .012.044v.448a2.222 2.222 0 0 1 .235-.3 1.357 1.357 0 0 1 .209-.181.746.746 0 0 1 .2-.094.818.818 0 0 1 .2-.022h.1a.825.825 0 0 1 .121.021.862.862 0 0 1 .11.033.174.174 0 0 1 .069.031.148.148 0 0 1 .026.031c0 .011.007.024.013.04s0 .038.007.069z" class="cls-1" transform="translate(50.445 25.641)"/>
            <path id="Fill-25" d="M48.37 27.606a.087.087 0 0 1-.015.05.123.123 0 0 1-.044.031.311.311 0 0 1-.085.018.97.97 0 0 1-.14.01.907.907 0 0 1-.135-.01.342.342 0 0 1-.087-.018.12.12 0 0 1-.044-.031.082.082 0 0 1-.012-.05v-3.063a.072.072 0 0 1 .012-.043.12.12 0 0 1 .044-.034.255.255 0 0 1 .087-.017.7.7 0 0 1 .135-.01.755.755 0 0 1 .14.01.235.235 0 0 1 .085.017.122.122 0 0 1 .044.034.08.08 0 0 1 .015.043zm.064-4.1a.376.376 0 0 1-.076.271.4.4 0 0 1-.275.071.389.389 0 0 1-.269-.069.368.368 0 0 1-.074-.266.384.384 0 0 1 .076-.268.568.568 0 0 1 .544 0 .36.36 0 0 1 .074.263z" class="cls-1" transform="translate(52.15 25.005)"/>
            <path id="Fill-27" d="M51.605 26.97a.1.1 0 0 1-.015.05.166.166 0 0 1-.047.031.313.313 0 0 1-.082.018 1.013 1.013 0 0 1-.279 0 .345.345 0 0 1-.083-.018.12.12 0 0 1-.044-.031.075.075 0 0 1-.015-.05v-1.792a1.694 1.694 0 0 0-.04-.423.809.809 0 0 0-.118-.276.5.5 0 0 0-.2-.176.639.639 0 0 0-.292-.062.706.706 0 0 0-.419.149 2.235 2.235 0 0 0-.442.44v2.14a.1.1 0 0 1-.013.05.143.143 0 0 1-.044.031.388.388 0 0 1-.087.018.9.9 0 0 1-.138.01.845.845 0 0 1-.135-.01.339.339 0 0 1-.087-.018.139.139 0 0 1-.048-.031.188.188 0 0 1-.011-.05v-3.063a.107.107 0 0 1 .011-.044.123.123 0 0 1 .04-.035.332.332 0 0 1 .082-.02.793.793 0 0 1 .125-.006.766.766 0 0 1 .121.006.272.272 0 0 1 .079.02.086.086 0 0 1 .038.035.067.067 0 0 1 .01.044v.407a1.894 1.894 0 0 1 .516-.423 1.118 1.118 0 0 1 .522-.133 1.181 1.181 0 0 1 .512.1.891.891 0 0 1 .34.279 1.082 1.082 0 0 1 .184.405 2.283 2.283 0 0 1 .061.561z" class="cls-1" transform="translate(53.487 25.641)"/>
            <path id="Fill-29" d="M53 24.853a.665.665 0 0 0-.175-.488.654.654 0 0 0-.488-.176.7.7 0 0 0-.282.055.557.557 0 0 0-.2.15.642.642 0 0 0-.119.22.886.886 0 0 0-.038.257.671.671 0 0 0 .169.479.76.76 0 0 0 .77.12.549.549 0 0 0 .2-.146.585.585 0 0 0 .12-.217.813.813 0 0 0 .043-.254m.281 2.428a.341.341 0 0 0-.161-.3.807.807 0 0 0-.438-.114l-.791-.031a1.623 1.623 0 0 0-.177.166.65.65 0 0 0-.112.147.4.4 0 0 0-.057.136.827.827 0 0 0-.015.139.361.361 0 0 0 .226.338 1.445 1.445 0 0 0 .624.112 1.606 1.606 0 0 0 .424-.046.834.834 0 0 0 .281-.132.484.484 0 0 0 .15-.189.574.574 0 0 0 .045-.22m.592-3.234a.389.389 0 0 1-.026.172.108.108 0 0 1-.086.055h-.44a.687.687 0 0 1 .169.268 1.008 1.008 0 0 1 .047.31 1.241 1.241 0 0 1-.083.468.973.973 0 0 1-.247.346 1.056 1.056 0 0 1-.375.216 1.48 1.48 0 0 1-.482.077 1.309 1.309 0 0 1-.357-.05.737.737 0 0 1-.258-.126.539.539 0 0 0-.1.14.4.4 0 0 0-.042.181.229.229 0 0 0 .114.2.558.558 0 0 0 .292.088l.8.032a1.757 1.757 0 0 1 .419.062.963.963 0 0 1 .328.163.723.723 0 0 1 .3.6.987.987 0 0 1-.091.4.877.877 0 0 1-.271.334 1.3 1.3 0 0 1-.463.228 2.884 2.884 0 0 1-1.3.019 1.38 1.38 0 0 1-.429-.17.667.667 0 0 1-.239-.26.747.747 0 0 1-.076-.328.855.855 0 0 1 .027-.22.72.72 0 0 1 .082-.2.973.973 0 0 1 .144-.183 1.66 1.66 0 0 1 .189-.171.6.6 0 0 1-.246-.215.518.518 0 0 1-.08-.278.79.79 0 0 1 .085-.371 1.248 1.248 0 0 1 .209-.295.959.959 0 0 1-.224-.667 1.187 1.187 0 0 1 .085-.469 1.007 1.007 0 0 1 .245-.351 1.072 1.072 0 0 1 .375-.219 1.457 1.457 0 0 1 .478-.079 1.879 1.879 0 0 1 .26.017 2.058 2.058 0 0 1 .228.042h.924a.09.09 0 0 1 .086.056.388.388 0 0 1 .026.172" class="cls-1" transform="translate(55.689 25.643)"/>
            <path id="Fill-31" d="M62.206 24.119a.142.142 0 0 1-.032.085.205.205 0 0 1-.1.057.878.878 0 0 1-.182.037 2.717 2.717 0 0 1-.288.011 2.808 2.808 0 0 1-.288-.011.856.856 0 0 1-.18-.037.223.223 0 0 1-.1-.057.137.137 0 0 1-.028-.085v-2.372h-2.19v2.371a.138.138 0 0 1-.028.085.211.211 0 0 1-.095.057.878.878 0 0 1-.182.037 3.713 3.713 0 0 1-.577 0 .962.962 0 0 1-.184-.037.246.246 0 0 1-.1-.057.145.145 0 0 1-.027-.085v-5.545a.128.128 0 0 1 .027-.08.211.211 0 0 1 .1-.059.909.909 0 0 1 .184-.038 3.344 3.344 0 0 1 .577 0 .831.831 0 0 1 .182.038.184.184 0 0 1 .095.059.122.122 0 0 1 .028.08v2.158h2.193v-2.158a.121.121 0 0 1 .028-.08.194.194 0 0 1 .1-.059.811.811 0 0 1 .18-.038 2.271 2.271 0 0 1 .288-.012 2.2 2.2 0 0 1 .288.012.831.831 0 0 1 .182.038.18.18 0 0 1 .1.059.126.126 0 0 1 .032.08z" class="cls-2" transform="translate(62.949 19.771)"/>
            <path id="Fill-33" d="M63.146 20.911a1.2 1.2 0 0 0-.192-.756.745.745 0 0 0-.638-.276.855.855 0 0 0-.379.081.8.8 0 0 0-.268.221 1.018 1.018 0 0 0-.163.329 1.576 1.576 0 0 0-.066.4zm1.108.327a.434.434 0 0 1-.095.31.33.33 0 0 1-.258.1h-2.46a1.571 1.571 0 0 0 .062.467.9.9 0 0 0 .192.361.936.936 0 0 0 .349.225 1.5 1.5 0 0 0 .5.076 3.156 3.156 0 0 0 .53-.043 2.8 2.8 0 0 0 .389-.1c.116-.035.207-.064.281-.094a.463.463 0 0 1 .172-.046.159.159 0 0 1 .07.018.136.136 0 0 1 .045.058.374.374 0 0 1 .023.113 1.773 1.773 0 0 1 .009.191v.172c0 .047-.01.084-.015.118a.234.234 0 0 1-.028.083.264.264 0 0 1-.048.067.456.456 0 0 1-.161.085 3.04 3.04 0 0 1-.334.109A4.337 4.337 0 0 1 63 23.6a3.756 3.756 0 0 1-.564.042 2.943 2.943 0 0 1-.936-.142 1.661 1.661 0 0 1-.678-.414 1.7 1.7 0 0 1-.406-.7 3.186 3.186 0 0 1-.135-.985 3.046 3.046 0 0 1 .144-.975 1.963 1.963 0 0 1 .4-.735 1.811 1.811 0 0 1 .649-.462 2.3 2.3 0 0 1 .869-.16 2.346 2.346 0 0 1 .865.149 1.552 1.552 0 0 1 .594.419 1.6 1.6 0 0 1 .338.629 2.727 2.727 0 0 1 .112.788z" class="cls-2" transform="translate(65.847 20.521)"/>
            <path id="Fill-35" d="M65.081 21.659h-.434a2.454 2.454 0 0 0-.473.04.909.909 0 0 0-.315.124.476.476 0 0 0-.18.2.583.583 0 0 0-.057.263.513.513 0 0 0 .161.4.637.637 0 0 0 .447.145.815.815 0 0 0 .438-.122 1.9 1.9 0 0 0 .412-.358zm1.119 1.735a.126.126 0 0 1-.046.1.335.335 0 0 1-.144.055 2.429 2.429 0 0 1-.283.011 2.513 2.513 0 0 1-.3-.011.239.239 0 0 1-.131-.055.123.123 0 0 1-.041-.1v-.319a1.822 1.822 0 0 1-.567.415 1.68 1.68 0 0 1-.71.151 1.935 1.935 0 0 1-.592-.086 1.3 1.3 0 0 1-.467-.251 1.03 1.03 0 0 1-.3-.409 1.308 1.308 0 0 1-.11-.571 1.293 1.293 0 0 1 .137-.616 1.115 1.115 0 0 1 .412-.43 2.06 2.06 0 0 1 .683-.254 5.076 5.076 0 0 1 .947-.08h.395V20.7a1.33 1.33 0 0 0-.04-.333.537.537 0 0 0-.125-.239.517.517 0 0 0-.233-.138 1.257 1.257 0 0 0-.366-.049A1.877 1.877 0 0 0 63.8 20a2.728 2.728 0 0 0-.4.14 5.18 5.18 0 0 0-.288.143.428.428 0 0 1-.19.063.153.153 0 0 1-.087-.033.239.239 0 0 1-.061-.09.461.461 0 0 1-.038-.144 1 1 0 0 1-.015-.192.955.955 0 0 1 .021-.22.379.379 0 0 1 .087-.15.833.833 0 0 1 .224-.144 2.225 2.225 0 0 1 .372-.147 3.538 3.538 0 0 1 .465-.113 3.059 3.059 0 0 1 .518-.045 3.271 3.271 0 0 1 .816.093 1.414 1.414 0 0 1 .552.288 1.1 1.1 0 0 1 .319.5 2.257 2.257 0 0 1 .1.719z" class="cls-2" transform="translate(68.282 20.521)"/>
            <path id="Fill-37" d="M65.959 24.348a.139.139 0 0 1-.025.079.191.191 0 0 1-.1.058.907.907 0 0 1-.173.034q-.108.008-.273.008c-.114 0-.207 0-.277-.008a.947.947 0 0 1-.175-.034.216.216 0 0 1-.095-.058.143.143 0 0 1-.029-.079v-5.971a.162.162 0 0 1 .029-.081.264.264 0 0 1 .095-.062.749.749 0 0 1 .175-.038 3.122 3.122 0 0 1 .55 0 .72.72 0 0 1 .173.038.224.224 0 0 1 .1.062.157.157 0 0 1 .025.081z" class="cls-2" transform="translate(70.802 19.553)"/>
            <path id="Fill-39" d="M68.543 23.495a1.5 1.5 0 0 1-.025.305.338.338 0 0 1-.067.152.41.41 0 0 1-.119.08 1.53 1.53 0 0 1-.188.055 1.314 1.314 0 0 1-.228.038 2.251 2.251 0 0 1-.256.015 1.854 1.854 0 0 1-.588-.087.963.963 0 0 1-.414-.266 1.079 1.079 0 0 1-.237-.451 2.3 2.3 0 0 1-.078-.643v-2.078h-.485c-.059 0-.1-.033-.133-.1a1.068 1.068 0 0 1-.042-.355 1.535 1.535 0 0 1 .012-.225.549.549 0 0 1 .03-.142.21.21 0 0 1 .057-.075.166.166 0 0 1 .084-.023h.478v-.9a.15.15 0 0 1 .025-.084.223.223 0 0 1 .089-.063.763.763 0 0 1 .177-.032c.076-.008.168-.011.277-.011a2.762 2.762 0 0 1 .277.011.706.706 0 0 1 .177.032.22.22 0 0 1 .089.063.138.138 0 0 1 .029.084v.9h.88a.148.148 0 0 1 .076.023.212.212 0 0 1 .059.075.554.554 0 0 1 .032.142 2.252 2.252 0 0 1 .013.225.959.959 0 0 1-.045.355c-.032.07-.074.1-.133.1h-.882v1.9a.932.932 0 0 0 .1.5.407.407 0 0 0 .374.167.969.969 0 0 0 .159-.015.8.8 0 0 0 .129-.037.7.7 0 0 0 .095-.036.207.207 0 0 1 .07-.016.078.078 0 0 1 .054.016.1.1 0 0 1 .042.063c.007.034.015.074.022.126a1.964 1.964 0 0 1 .013.212" class="cls-2" transform="translate(71.751 20.006)"/>
            <path id="Fill-41" d="M71.306 24.348a.1.1 0 0 1-.029.079.175.175 0 0 1-.089.058 1.01 1.01 0 0 1-.175.034c-.076.006-.165.008-.275.008s-.2 0-.279-.008a.936.936 0 0 1-.175-.034.184.184 0 0 1-.089-.058.128.128 0 0 1-.026-.079v-2.311a1.848 1.848 0 0 0-.045-.462.929.929 0 0 0-.123-.29.541.541 0 0 0-.21-.184.655.655 0 0 0-.3-.066.775.775 0 0 0-.44.158 2.362 2.362 0 0 0-.461.464v2.692a.129.129 0 0 1-.028.079.172.172 0 0 1-.095.058.915.915 0 0 1-.171.034c-.072.006-.167.008-.277.008s-.207 0-.275-.008a1.006 1.006 0 0 1-.177-.034.179.179 0 0 1-.093-.058.129.129 0 0 1-.028-.079v-5.972a.146.146 0 0 1 .028-.081.212.212 0 0 1 .093-.062.791.791 0 0 1 .177-.038 2.137 2.137 0 0 1 .275-.012 2.246 2.246 0 0 1 .277.012.723.723 0 0 1 .171.038.2.2 0 0 1 .095.062.145.145 0 0 1 .028.081v2.239a2.19 2.19 0 0 1 .6-.432 1.483 1.483 0 0 1 .635-.145 1.625 1.625 0 0 1 .7.137 1.275 1.275 0 0 1 .459.373 1.6 1.6 0 0 1 .25.553 3.5 3.5 0 0 1 .076.763z" class="cls-2" transform="translate(73.674 19.553)"/>
            <path id="Fill-43" d="M58.824 28.688a.121.121 0 0 1-.032.084.217.217 0 0 1-.1.057 1 1 0 0 1-.184.034 1.863 1.863 0 0 1-.289.015 1.9 1.9 0 0 1-.286-.015 1.1 1.1 0 0 1-.184-.034.237.237 0 0 1-.1-.057.148.148 0 0 1-.027-.084v-5.545a.131.131 0 0 1 .027-.082.24.24 0 0 1 .1-.063 1.1 1.1 0 0 1 .182-.033 2.109 2.109 0 0 1 .285-.014 2.054 2.054 0 0 1 .289.014.984.984 0 0 1 .184.033.227.227 0 0 1 .1.063.108.108 0 0 1 .032.082z" class="cls-2" transform="translate(62.949 24.76)"/>
            <path id="Fill-45" d="M62.639 27.949a.135.135 0 0 1-.025.078.259.259 0 0 1-.093.059 1.17 1.17 0 0 1-.174.034c-.076.007-.167.009-.275.009s-.2 0-.281-.009a1.239 1.239 0 0 1-.173-.034.236.236 0 0 1-.091-.059.123.123 0 0 1-.025-.078v-2.312a2.231 2.231 0 0 0-.042-.465.866.866 0 0 0-.129-.285.51.51 0 0 0-.209-.185.619.619 0 0 0-.3-.066.76.76 0 0 0-.44.155 2.613 2.613 0 0 0-.463.464v2.694a.108.108 0 0 1-.031.078.17.17 0 0 1-.089.059 1.258 1.258 0 0 1-.173.034c-.074.007-.167.009-.279.009s-.2 0-.275-.009a1.088 1.088 0 0 1-.173-.034.209.209 0 0 1-.1-.059.137.137 0 0 1-.027-.078V23.9a.159.159 0 0 1 .025-.079.178.178 0 0 1 .081-.057.6.6 0 0 1 .154-.031 1.826 1.826 0 0 1 .229-.013 2.036 2.036 0 0 1 .241.013.493.493 0 0 1 .146.031.172.172 0 0 1 .074.057.118.118 0 0 1 .025.079v.466a2.7 2.7 0 0 1 .683-.545 1.561 1.561 0 0 1 .723-.182 1.627 1.627 0 0 1 .694.139 1.2 1.2 0 0 1 .459.369 1.539 1.539 0 0 1 .25.548 3.108 3.108 0 0 1 .078.755z" class="cls-2" transform="translate(64.205 25.51)"/>
            <path id="Fill-47" d="M64.13 26.805a1.361 1.361 0 0 1-.129.608 1.226 1.226 0 0 1-.366.439 1.658 1.658 0 0 1-.556.268 2.664 2.664 0 0 1-.7.089 2.635 2.635 0 0 1-.432-.034 2.393 2.393 0 0 1-.37-.088 2.551 2.551 0 0 1-.275-.1.891.891 0 0 1-.158-.1.356.356 0 0 1-.076-.152 1.294 1.294 0 0 1-.028-.3 1.534 1.534 0 0 1 .011-.211.36.36 0 0 1 .027-.128.1.1 0 0 1 .043-.063.13.13 0 0 1 .069-.016.336.336 0 0 1 .148.056c.064.037.146.08.243.125a2.619 2.619 0 0 0 .336.128 1.5 1.5 0 0 0 .442.056.98.98 0 0 0 .267-.031.616.616 0 0 0 .215-.09.369.369 0 0 0 .131-.148.441.441 0 0 0 .047-.21.335.335 0 0 0-.087-.234.684.684 0 0 0-.22-.171 3.339 3.339 0 0 0-.309-.136c-.12-.044-.239-.091-.362-.139a3.427 3.427 0 0 1-.356-.179 1.393 1.393 0 0 1-.311-.247 1.074 1.074 0 0 1-.226-.349 1.307 1.307 0 0 1-.084-.488 1.231 1.231 0 0 1 .114-.534 1.1 1.1 0 0 1 .33-.415 1.458 1.458 0 0 1 .516-.269 2.283 2.283 0 0 1 .689-.1 2.347 2.347 0 0 1 .368.031 2.61 2.61 0 0 1 .326.067 1.573 1.573 0 0 1 .243.087.9.9 0 0 1 .143.083.237.237 0 0 1 .06.07.286.286 0 0 1 .026.08c.006.031.012.071.017.12a1.564 1.564 0 0 1 .006.175c0 .08 0 .147-.006.2a.458.458 0 0 1-.025.122.129.129 0 0 1-.044.064.154.154 0 0 1-.061.012.269.269 0 0 1-.127-.045 1.9 1.9 0 0 0-.216-.1 2.5 2.5 0 0 0-.3-.1 1.449 1.449 0 0 0-.393-.05.964.964 0 0 0-.266.033.479.479 0 0 0-.186.092.356.356 0 0 0-.108.139.368.368 0 0 0-.036.169.344.344 0 0 0 .085.238.912.912 0 0 0 .226.167 2.076 2.076 0 0 0 .322.134c.116.043.239.09.361.139a3.992 3.992 0 0 1 .364.175 1.49 1.49 0 0 1 .319.248 1.118 1.118 0 0 1 .226.346 1.193 1.193 0 0 1 .087.479" class="cls-2" transform="translate(66.68 25.51)"/>
            <path id="Fill-49" d="M66.774 27.907a.133.133 0 0 1-.021.078.194.194 0 0 1-.082.059.892.892 0 0 1-.148.034 2.3 2.3 0 0 1-.233.009 2.258 2.258 0 0 1-.241-.009.827.827 0 0 1-.15-.034.151.151 0 0 1-.076-.059.135.135 0 0 1-.025-.078v-.468a2.614 2.614 0 0 1-.682.544 1.541 1.541 0 0 1-.72.183 1.576 1.576 0 0 1-.7-.138 1.15 1.15 0 0 1-.455-.371 1.431 1.431 0 0 1-.251-.547 3.3 3.3 0 0 1-.076-.772v-2.482a.129.129 0 0 1 .025-.079.213.213 0 0 1 .089-.057.8.8 0 0 1 .177-.031 2.95 2.95 0 0 1 .275-.013 2.716 2.716 0 0 1 .277.013.785.785 0 0 1 .175.031.218.218 0 0 1 .091.057.1.1 0 0 1 .029.079v2.289a2.224 2.224 0 0 0 .042.486.8.8 0 0 0 .125.288.526.526 0 0 0 .213.185.643.643 0 0 0 .3.066.735.735 0 0 0 .437-.158 2.518 2.518 0 0 0 .468-.464v-2.692a.144.144 0 0 1 .027-.079.214.214 0 0 1 .089-.057.792.792 0 0 1 .176-.031 2.714 2.714 0 0 1 .275-.013 2.773 2.773 0 0 1 .277.013.743.743 0 0 1 .173.031.241.241 0 0 1 .089.057.112.112 0 0 1 .028.079z" class="cls-2" transform="translate(68.728 25.552)"/>
            <path id="Fill-51" d="M67.9 24.275c0 .111 0 .2-.006.271a1.023 1.023 0 0 1-.031.162.188.188 0 0 1-.047.083.124.124 0 0 1-.076.02.194.194 0 0 1-.078-.015c-.034-.009-.067-.022-.1-.035a1.168 1.168 0 0 0-.127-.031.6.6 0 0 0-.15-.016.553.553 0 0 0-.192.036.953.953 0 0 0-.193.122 1.285 1.285 0 0 0-.213.219 2.984 2.984 0 0 0-.237.335v2.525a.142.142 0 0 1-.029.078.216.216 0 0 1-.1.059 1.186 1.186 0 0 1-.171.034c-.076.007-.167.009-.279.009s-.2 0-.275-.009a1.227 1.227 0 0 1-.174-.034.211.211 0 0 1-.093-.059.129.129 0 0 1-.028-.078V23.9a.141.141 0 0 1 .025-.079.183.183 0 0 1 .079-.057.71.71 0 0 1 .152-.031 1.971 1.971 0 0 1 .233-.013 2.088 2.088 0 0 1 .241.013.641.641 0 0 1 .15.031.184.184 0 0 1 .07.057.116.116 0 0 1 .025.079v.5a2.755 2.755 0 0 1 .3-.375 1.506 1.506 0 0 1 .266-.234.787.787 0 0 1 .254-.121.942.942 0 0 1 .253-.037 1.267 1.267 0 0 1 .127.009.937.937 0 0 1 .143.022.708.708 0 0 1 .127.039.229.229 0 0 1 .078.042.123.123 0 0 1 .038.05.579.579 0 0 1 .019.078.9.9 0 0 1 .013.141v.256" class="cls-2" transform="translate(71.34 25.51)"/>
            <path id="Fill-53" d="M69.243 26.229h-.435a2.052 2.052 0 0 0-.47.042.826.826 0 0 0-.317.121.472.472 0 0 0-.182.2.6.6 0 0 0-.057.263.517.517 0 0 0 .162.4.641.641 0 0 0 .447.145.833.833 0 0 0 .44-.122 1.846 1.846 0 0 0 .412-.359zm1.118 1.734a.118.118 0 0 1-.044.1.3.3 0 0 1-.142.052 2.865 2.865 0 0 1-.584 0 .242.242 0 0 1-.131-.052.13.13 0 0 1-.04-.1v-.321a1.847 1.847 0 0 1-.567.415 1.653 1.653 0 0 1-.71.152 1.911 1.911 0 0 1-.594-.086 1.365 1.365 0 0 1-.465-.248 1.1 1.1 0 0 1-.308-.411 1.406 1.406 0 0 1-.108-.572 1.31 1.31 0 0 1 .139-.615 1.114 1.114 0 0 1 .412-.431 2.074 2.074 0 0 1 .681-.253 5.1 5.1 0 0 1 .951-.082h.393v-.243a1.353 1.353 0 0 0-.038-.336.637.637 0 0 0-.125-.239.558.558 0 0 0-.237-.142 1.36 1.36 0 0 0-.365-.043 1.752 1.752 0 0 0-.51.064 2.692 2.692 0 0 0-.4.141 3.075 3.075 0 0 0-.286.139.432.432 0 0 1-.19.065.147.147 0 0 1-.093-.032.231.231 0 0 1-.063-.093.6.6 0 0 1-.035-.143 1.127 1.127 0 0 1-.016-.192.856.856 0 0 1 .023-.222.331.331 0 0 1 .091-.148.833.833 0 0 1 .22-.142 2.3 2.3 0 0 1 .374-.149 3.393 3.393 0 0 1 .465-.112 3.281 3.281 0 0 1 .518-.045 3.015 3.015 0 0 1 .814.1 1.328 1.328 0 0 1 .554.283 1.091 1.091 0 0 1 .317.5 2.247 2.247 0 0 1 .1.723z" class="cls-2" transform="translate(72.827 25.51)"/>
            <path id="Fill-55" d="M72.84 27.949a.108.108 0 0 1-.031.078.179.179 0 0 1-.089.059 1.046 1.046 0 0 1-.173.034c-.074.007-.167.009-.271.009s-.209 0-.281-.009a.992.992 0 0 1-.174-.034.219.219 0 0 1-.093-.059.126.126 0 0 1-.026-.078v-2.312a2.006 2.006 0 0 0-.044-.465.983.983 0 0 0-.122-.285.548.548 0 0 0-.214-.185.622.622 0 0 0-.3-.066.754.754 0 0 0-.436.155 2.28 2.28 0 0 0-.463.464v2.694a.126.126 0 0 1-.029.078.2.2 0 0 1-.093.059 1.2 1.2 0 0 1-.177.034c-.072.007-.163.009-.273.009s-.207 0-.279-.009a1.205 1.205 0 0 1-.174-.034.194.194 0 0 1-.091-.059.115.115 0 0 1-.029-.078V23.9a.157.157 0 0 1 .022-.081.171.171 0 0 1 .082-.057.6.6 0 0 1 .152-.031 1.96 1.96 0 0 1 .233-.013 2.09 2.09 0 0 1 .241.013.557.557 0 0 1 .149.031.172.172 0 0 1 .071.057.118.118 0 0 1 .025.079v.466a2.786 2.786 0 0 1 .681-.545 1.579 1.579 0 0 1 .725-.182 1.623 1.623 0 0 1 .695.139 1.252 1.252 0 0 1 .459.369 1.615 1.615 0 0 1 .253.548 3.316 3.316 0 0 1 .076.755z" class="cls-2" transform="translate(75.349 25.51)"/>
            <path id="Fill-57" d="M74.546 27.3a1.9 1.9 0 0 1-.007.2c0 .052-.011.1-.017.134a.516.516 0 0 1-.026.087.47.47 0 0 1-.07.089.924.924 0 0 1-.188.125 1.863 1.863 0 0 1-.3.135 2.658 2.658 0 0 1-.366.095 2.3 2.3 0 0 1-.406.036 2.175 2.175 0 0 1-.829-.146 1.564 1.564 0 0 1-.607-.429 1.942 1.942 0 0 1-.366-.69 3.267 3.267 0 0 1-.121-.936 3.308 3.308 0 0 1 .148-1.052 2.017 2.017 0 0 1 .427-.734 1.671 1.671 0 0 1 .64-.431 2.31 2.31 0 0 1 .821-.142 2.073 2.073 0 0 1 .353.032 2.1 2.1 0 0 1 .328.085 1.317 1.317 0 0 1 .269.128.686.686 0 0 1 .171.114 1.03 1.03 0 0 1 .072.082.513.513 0 0 1 .028.088.789.789 0 0 1 .019.137c0 .05.006.116.006.191a1.051 1.051 0 0 1-.046.37c-.029.072-.07.107-.116.107a.269.269 0 0 1-.163-.064 6.298 6.298 0 0 0-.2-.141 1.3 1.3 0 0 0-.282-.139 1.029 1.029 0 0 0-.389-.064.768.768 0 0 0-.679.344 1.776 1.776 0 0 0-.237 1 2.465 2.465 0 0 0 .061.574 1.174 1.174 0 0 0 .176.419.722.722 0 0 0 .29.255.976.976 0 0 0 .406.083 1.12 1.12 0 0 0 .4-.07 1.687 1.687 0 0 0 .3-.159 2.482 2.482 0 0 0 .212-.158.244.244 0 0 1 .146-.068.116.116 0 0 1 .068.022.2.2 0 0 1 .041.086 1.452 1.452 0 0 1 .027.154c.006.066.007.148.007.247" class="cls-2" transform="translate(77.823 25.513)"/>
            <g id="Group-61" transform="translate(152.957 49.147)">
                <path id="Fill-59" d="M2.9 1.957a1.147 1.147 0 0 0-.19-.757.749.749 0 0 0-.639-.276.832.832 0 0 0-.377.084.787.787 0 0 0-.267.218 1.022 1.022 0 0 0-.162.329 1.529 1.529 0 0 0-.064.4zm1.108.326a.427.427 0 0 1-.091.308.329.329 0 0 1-.256.1H1.2a1.727 1.727 0 0 0 .057.468.948.948 0 0 0 .2.359.838.838 0 0 0 .343.222 1.4 1.4 0 0 0 .508.078 2.87 2.87 0 0 0 .522-.041 3.591 3.591 0 0 0 .392-.1c.112-.032.2-.066.275-.093a.5.5 0 0 1 .178-.044.172.172 0 0 1 .07.015.163.163 0 0 1 .043.056.334.334 0 0 1 .023.116 1.747 1.747 0 0 1 .008.191v.171a.648.648 0 0 1-.015.117.238.238 0 0 1-.027.087.516.516 0 0 1-.048.064.469.469 0 0 1-.161.085 2.2 2.2 0 0 1-.336.108c-.135.033-.29.064-.465.092a4 4 0 0 1-.563.039 2.964 2.964 0 0 1-.945-.137 1.65 1.65 0 0 1-.677-.412 1.71 1.71 0 0 1-.406-.7 3.239 3.239 0 0 1-.135-.985 3.182 3.182 0 0 1 .141-.975A2.092 2.092 0 0 1 .585.737a1.757 1.757 0 0 1 .65-.461A2.263 2.263 0 0 1 2.1.115a2.276 2.276 0 0 1 .865.152 1.588 1.588 0 0 1 .595.414 1.632 1.632 0 0 1 .338.631 2.632 2.632 0 0 1 .11.788z" class="cls-2" transform="translate(-.037 -.115)"/>
            </g>
            <path id="Fill-62" d="M61.093 18.253h-4.972l-.708 1.887h5.107zm-29.655 2.989H18.461a1.259 1.259 0 0 0 .12.109 9.834 9.834 0 0 0 3.564 1.78h10.683a5.647 5.647 0 0 0-.349-.692 4.77 4.77 0 0 0-1.042-1.2zm28.743 0H55l-.711 1.89h5.321zm-19.449 1.89h5.79v-1.89h-5.79zM21.9 25.092l-5.663.018a8.5 8.5 0 0 0 .15 1.013h5.693a3.364 3.364 0 0 1-.18-1.03zm18.83 1.03h5.79v-1.887h-5.79zm22.347-2.991h5.456l-.708-1.89h-5.317zM40.732 20.14h5.79v-1.887h-5.79zm-14.611 4.1a2.905 2.905 0 0 1 .844.475 1.714 1.714 0 0 1 .635 1.3v.109h5.566a6.488 6.488 0 0 0 .065-.907 5.7 5.7 0 0 0-.084-.98zm3.5-4.1a28.4 28.4 0 0 0-4.957-1.433 7.635 7.635 0 0 1-1.559-.455h-6.13a4.5 4.5 0 0 0 .592 1.887zm35.965-4.882h-8.339l-.711 1.888h9.757zm4.484 11.967H52.746l-.711 1.891h5.738l.271-.895h6.564l.273.895h5.9zm3.275-7.084h5.807v-1.888h-5.808zm15.622 5.75a7.445 7.445 0 0 0-.812-1.164c-.15-.19-.287-.352-.412-.491H81.2a5.135 5.135 0 0 1 .939 1.353l.286.534h6.661zm-62.035 1.471a2.831 2.831 0 0 1-1.91.581 3.172 3.172 0 0 1-2.146-.719h-6.182a6.876 6.876 0 0 0 1.04 1.891H31.8a5.668 5.668 0 0 0 .431-.576 5.919 5.919 0 0 0 .654-1.316h-5.811a1.751 1.751 0 0 1-.142.138zM62.17 20.14h5.242l-.706-1.887h-5.112zm11.174 5.982h5.807v-1.887h-5.807zm-4.4-1.887H53.87l-.709 1.887h16.5zm-44.012 7.4a11.246 11.246 0 0 0 4.509-.787 6.877 6.877 0 0 0 1.135-.631H18.818q1.932 1.417 6.118 1.417zm26.269-.319h5.913l.326-1.1h-5.821zm13.373-18.749H58.26l-.6 1.588h7.5zm-34.2 1.018a9.393 9.393 0 0 0-5.474-1.338 11.713 11.713 0 0 0-4.606.737 6.2 6.2 0 0 0-1.81 1.171H31.03a5.029 5.029 0 0 0-.654-.571zm4.45.571h17.6v-1.589h-17.6zm5.906 17.16h5.79v-1.1h-5.79zm24.482-1.1l.33 1.1H71.6l-.412-1.1zm26 0h-6.571l.594 1.1h6.541zm-17.865 1.1h5.807v-1.1h-5.81zm13.75-18.288a13.972 13.972 0 0 0-4.1-.46h-9.653v1.588H88.91a4.327 4.327 0 0 0-1.816-1.128zm2.563 14.2h-6.639l1.023 1.891h6.594zm-16.316 1.888h5.807v-1.891h-5.807zm-32.613 0h5.79v-1.891h-5.79zM22.806 16.175a2.3 2.3 0 0 1 1.518-.431 2.918 2.918 0 0 1 1.92.577 2.348 2.348 0 0 1 .613.827h5.651a6.757 6.757 0 0 0-.664-1.888H17.627a4.949 4.949 0 0 0-.645 1.888H22.3a1.307 1.307 0 0 1 .51-.972zm12.02.972h17.6v-1.888h-17.6zm44.326-.791H81.7a3.481 3.481 0 0 1 2.163.484 1.664 1.664 0 0 1 .281.306h6.073a5.157 5.157 0 0 0-.525-1.888H73.344v1.888h5.807zm4.93 2.97a1.547 1.547 0 0 1-.944.589c-.5.111-.888.186-1.175.224h7.8a5.144 5.144 0 0 0 .475-1.887h-5.79a1.741 1.741 0 0 1-.362 1.074zm1.639 3.721a7.033 7.033 0 0 0 2.034-.742 5.443 5.443 0 0 0 1.275-1.064H73.344v1.89h12.632l-.256-.083z" class="cls-2" transform="translate(17.738 13.067)"/>
            <g id="Group-66" transform="translate(3.997)">
                <path id="Fill-64" d="M27.37.138L18.314 18.6.125 20.97l11.851 14.054-2.865 20.509 16.649-8.857 13 8.966 1.933-.862-14.971-12.511-12.637 6.811 3.293-15.022-9.056-10.72 13.285-1.868 6.657-13.335L35.5 23.013l1.072-1.04z" class="cls-2" transform="translate(-.125 -.138)"/>
            </g>
            <path id="Fill-67" d="M55.038 42.095h.292V10.8h-.292z" class="cls-1" transform="translate(60.122 11.486)"/>
            <path id="Fill-69" d="M152.819 37.424H0l3.984-9.24h152.809z" class="cls-2" transform="translate(0 30.476)"/>
            <path id="Fill-70" d="M9 29.849H7.343l.107-.484.107-.483h4.419l-.092.483-.093.484h-1.662l-.921 4.457H8.08z" class="cls-3" transform="translate(8.021 31.239)"/>
            <path id="Fill-71" d="M10.611 28.883h1.057l-.4 1.922.1-.1a1.633 1.633 0 0 1 1.216-.517 1.131 1.131 0 0 1 .941.367 1.185 1.185 0 0 1 .155 1.017l-.565 2.738h-1.051l.512-2.48a.768.768 0 0 0-.044-.568.505.505 0 0 0-.454-.184 1.01 1.01 0 0 0-.687.245 1.187 1.187 0 0 0-.369.681l-.472 2.306H9.491z" class="cls-3" transform="translate(10.367 31.239)"/>
            <path id="Fill-72" d="M14.817 31.2v-.14a.713.713 0 0 0-.163-.515.669.669 0 0 0-.5-.168.886.886 0 0 0-.7.328 1.676 1.676 0 0 0-.276.494zm-1.268 2.535a1.756 1.756 0 0 1-1.2-.371 1.35 1.35 0 0 1-.418-1.068 4.36 4.36 0 0 1 .073-.66 2.811 2.811 0 0 1 .828-1.565 2.171 2.171 0 0 1 1.516-.565 1.6 1.6 0 0 1 1.142.369 1.43 1.43 0 0 1 .387 1.085 3.406 3.406 0 0 1-.023.38 3.766 3.766 0 0 1-.072.421l-.028.129h-2.747l-.007.05a1.574 1.574 0 0 0-.015.21.653.653 0 0 0 .743.731 1.031 1.031 0 0 0 .489-.116.689.689 0 0 0 .312-.3H15.6a2.177 2.177 0 0 1-.834.93 2.269 2.269 0 0 1-1.218.343z" class="cls-3" transform="translate(13.029 31.919)"/>
            <path id="Fill-73" d="M16.492 28.883h1.128l-.427 2.066h2.138l.427-2.066h1.129l-1.12 5.424h-1.129l.494-2.391h-2.138l-.494 2.391h-1.129z" class="cls-3" transform="translate(16.791 31.239)"/>
            <path id="Fill-74" d="M21.078 31.2v-.14a.713.713 0 0 0-.163-.515.669.669 0 0 0-.5-.168.886.886 0 0 0-.7.328 1.676 1.676 0 0 0-.276.494zm-1.268 2.533a1.756 1.756 0 0 1-1.2-.371 1.351 1.351 0 0 1-.418-1.068 4.36 4.36 0 0 1 .073-.66 2.811 2.811 0 0 1 .828-1.565 2.171 2.171 0 0 1 1.516-.565 1.6 1.6 0 0 1 1.142.369 1.43 1.43 0 0 1 .387 1.085 3.405 3.405 0 0 1-.023.38 3.764 3.764 0 0 1-.072.421l-.028.129h-2.747l-.007.052a1.573 1.573 0 0 0-.015.21.653.653 0 0 0 .743.731 1.031 1.031 0 0 0 .489-.116.689.689 0 0 0 .312-.3h1.072a2.177 2.177 0 0 1-.834.93 2.269 2.269 0 0 1-1.218.343z" class="cls-3" transform="translate(19.869 31.919)"/>
            <path id="Fill-75" d="M22.963 32.165l.1-.487a1.227 1.227 0 0 1-.332.125l-.427.085a1.655 1.655 0 0 0-.6.214.585.585 0 0 0-.234.376q-.007.037-.011.074a.7.7 0 0 0 0 .07.324.324 0 0 0 .109.262.456.456 0 0 0 .3.092 1.2 1.2 0 0 0 .888-.4.7.7 0 0 0 .125-.184.907.907 0 0 0 .085-.229m-1.548 1.568a1.176 1.176 0 0 1-.775-.234.8.8 0 0 1-.282-.651 1.4 1.4 0 0 1 .009-.151 1.453 1.453 0 0 1 .028-.166 1.481 1.481 0 0 1 .494-.841 1.792 1.792 0 0 1 .958-.417l.891-.125a1.044 1.044 0 0 0 .236-.063.459.459 0 0 0 .214-.161.4.4 0 0 0 .07-.245.284.284 0 0 0-.1-.225.835.835 0 0 0-.494-.107.758.758 0 0 0-.464.142.914.914 0 0 0-.3.423h-1a1.65 1.65 0 0 1 .678-1.048 2.393 2.393 0 0 1 1.374-.358 1.69 1.69 0 0 1 1.123.3.739.739 0 0 1 .255.6 1.151 1.151 0 0 1-.03.277l-.453 2.19a1.234 1.234 0 0 0-.033.408.249.249 0 0 0 .129.2l-.03.144h-1.143a1.872 1.872 0 0 1 .007-.469 1.966 1.966 0 0 1-1.366.579" class="cls-3" transform="translate(22.238 31.919)"/>
            <path id="Fill-76" d="M23.749 28.883h1.058l-1.12 5.424h-1.058z" class="cls-3" transform="translate(24.719 31.239)"/>
            <path id="Fill-77" d="M25.529 34.164q-.258.019-.652.018a1.126 1.126 0 0 1-.772-.193.708.708 0 0 1-.1-.666l.5-2.446h-.545l.158-.756h.549l.221-1.081h1.057l-.221 1.081h.637l-.158.756h-.637l-.466 2.266a.163.163 0 0 0 .055.182.512.512 0 0 0 .284.057l.254-.015z" class="cls-3" transform="translate(26.173 31.411)"/>
            <path id="Fill-78" d="M26.37 28.883h1.058l-.4 1.922.1-.1a1.632 1.632 0 0 1 1.216-.517 1.13 1.13 0 0 1 .941.367 1.184 1.184 0 0 1 .155 1.017l-.565 2.738h-1.051l.512-2.48a.768.768 0 0 0-.045-.568.5.5 0 0 0-.454-.184 1.008 1.008 0 0 0-.687.245 1.185 1.185 0 0 0-.37.677l-.473 2.306H25.25z" class="cls-3" transform="translate(27.582 31.239)"/>
            <path id="Fill-79" d="M30 28.883h1.128l-1.12 5.424h-1.124z" class="cls-3" transform="translate(31.552 31.239)"/>
            <path id="Fill-80" d="M30.935 29.612h1.028l-.118.576.147-.166a1.63 1.63 0 0 1 1.215-.517 1.126 1.126 0 0 1 .939.367 1.185 1.185 0 0 1 .155 1.017l-.565 2.738h-1.057l.512-2.48a.765.765 0 0 0-.044-.568.505.505 0 0 0-.454-.184 1.01 1.01 0 0 0-.687.245 1.187 1.187 0 0 0-.369.681l-.472 2.306h-1.059z" class="cls-3" transform="translate(32.887 31.919)"/>
            <path id="Fill-81" d="M35.447 30.815a.506.506 0 0 0-.133-.4.7.7 0 0 0-.458-.116 1.075 1.075 0 0 0-.481.092.361.361 0 0 0-.215.255.222.222 0 0 0 .125.24 2.1 2.1 0 0 0 .564.2 2.878 2.878 0 0 1 1.2.494.692.692 0 0 1 .224.539 1.281 1.281 0 0 1-.03.262 1.517 1.517 0 0 1-.683.989 2.448 2.448 0 0 1-1.375.365 2.05 2.05 0 0 1-1.326-.347 1 1 0 0 1-.339-.8l.019-.243h1.08a.451.451 0 0 0 .155.448 1.073 1.073 0 0 0 .636.146.939.939 0 0 0 .477-.109.444.444 0 0 0 .227-.3.229.229 0 0 0-.133-.248 2.413 2.413 0 0 0-.613-.206A2.717 2.717 0 0 1 33.2 31.6a.679.679 0 0 1-.2-.516 1.3 1.3 0 0 1 .029-.266 1.5 1.5 0 0 1 .636-.959 2.148 2.148 0 0 1 1.254-.354 1.936 1.936 0 0 1 1.256.332.9.9 0 0 1 .313.727 1.7 1.7 0 0 1-.021.251z" class="cls-3" transform="translate(35.523 31.92)"/>
            <path id="Fill-82" d="M36 32.036a.757.757 0 0 0 .04.568.5.5 0 0 0 .453.185 1 1 0 0 0 .685-.245 1.185 1.185 0 0 0 .369-.681l.475-2.306h1.06l-.828 4.014h-1.02l.117-.587a1.342 1.342 0 0 1-.151.177 1.62 1.62 0 0 1-1.213.517 1.067 1.067 0 0 1-.936-.406 1.129 1.129 0 0 1-.184-.664 2.225 2.225 0 0 1 .052-.454l.538-2.6h1.058z" class="cls-3" transform="translate(38.087 31.975)"/>
            <path id="Fill-83" d="M37.992 29.612H39l-.172.815a3.3 3.3 0 0 1 .21-.3 1.386 1.386 0 0 1 1.068-.627h.255l-.188.9a2.966 2.966 0 0 0-.316-.015 1.093 1.093 0 0 0-.782.29 1.552 1.552 0 0 0-.421.843l-.434 2.1h-1.057z" class="cls-3" transform="translate(40.595 31.919)"/>
            <path id="Fill-84" d="M41.356 32.165l.1-.487a1.227 1.227 0 0 1-.332.125l-.427.085a1.659 1.659 0 0 0-.6.214.586.586 0 0 0-.234.376q-.007.037-.011.074a.7.7 0 0 0 0 .07.324.324 0 0 0 .109.262.456.456 0 0 0 .3.092 1.2 1.2 0 0 0 .888-.4.7.7 0 0 0 .125-.184.907.907 0 0 0 .085-.229m-1.548 1.568a1.176 1.176 0 0 1-.775-.234.8.8 0 0 1-.282-.651 1.4 1.4 0 0 1 .009-.151 1.454 1.454 0 0 1 .028-.166 1.481 1.481 0 0 1 .494-.841 1.792 1.792 0 0 1 .957-.417l.892-.125a1.044 1.044 0 0 0 .236-.063.459.459 0 0 0 .214-.161.4.4 0 0 0 .07-.245.284.284 0 0 0-.1-.225.835.835 0 0 0-.494-.107.758.758 0 0 0-.464.142.914.914 0 0 0-.3.423h-1a1.649 1.649 0 0 1 .678-1.048 2.393 2.393 0 0 1 1.374-.358 1.69 1.69 0 0 1 1.123.3.739.739 0 0 1 .255.6 1.136 1.136 0 0 1-.03.277l-.453 2.19a1.235 1.235 0 0 0-.033.408.249.249 0 0 0 .129.2l-.03.144h-1.143a1.872 1.872 0 0 1 .007-.469 1.966 1.966 0 0 1-1.366.579" class="cls-3" transform="translate(42.33 31.919)"/>
            <path id="Fill-85" d="M41.837 29.612h1.027l-.118.576.148-.166a1.629 1.629 0 0 1 1.215-.517 1.126 1.126 0 0 1 .939.367 1.183 1.183 0 0 1 .154 1.017l-.565 2.738h-1.056l.512-2.48a.765.765 0 0 0-.045-.568.5.5 0 0 0-.454-.184 1.008 1.008 0 0 0-.687.245 1.185 1.185 0 0 0-.369.681l-.473 2.306h-1.057z" class="cls-3" transform="translate(44.796 31.919)"/>
            <path id="Fill-86" d="M47.144 32.162a2.336 2.336 0 0 1-.838 1.147 2.207 2.207 0 0 1-1.332.424 1.565 1.565 0 0 1-1.109-.361 1.361 1.361 0 0 1-.387-1.044 3.017 3.017 0 0 1 .02-.334c.013-.119.033-.239.057-.36a2.8 2.8 0 0 1 .831-1.564 2.194 2.194 0 0 1 1.527-.565 1.526 1.526 0 0 1 1.157.406 1.205 1.205 0 0 1 .317.885l-.015.247H46.3a.8.8 0 0 0-.15-.5.535.535 0 0 0-.421-.153.851.851 0 0 0-.681.323 2.213 2.213 0 0 0-.406.968 4.019 4.019 0 0 0-.037.245 1.9 1.9 0 0 0-.015.227.819.819 0 0 0 .146.52.5.5 0 0 0 .413.184.9.9 0 0 0 .558-.194 1.07 1.07 0 0 0 .364-.507z" class="cls-3" transform="translate(47.494 31.919)"/>
            <path id="Fill-87" d="M48.556 31.2v-.14a.713.713 0 0 0-.163-.515.669.669 0 0 0-.5-.168.886.886 0 0 0-.7.328 1.683 1.683 0 0 0-.276.494zm-1.268 2.535a1.756 1.756 0 0 1-1.2-.371 1.35 1.35 0 0 1-.418-1.068 4.36 4.36 0 0 1 .073-.66 2.811 2.811 0 0 1 .828-1.565 2.171 2.171 0 0 1 1.516-.565 1.6 1.6 0 0 1 1.142.369 1.43 1.43 0 0 1 .387 1.085 3.406 3.406 0 0 1-.023.38 3.766 3.766 0 0 1-.072.421l-.028.129h-2.747l-.007.052a1.574 1.574 0 0 0-.015.21.653.653 0 0 0 .743.731 1.031 1.031 0 0 0 .489-.116.689.689 0 0 0 .312-.3h1.072a2.177 2.177 0 0 1-.834.93 2.269 2.269 0 0 1-1.218.343z" class="cls-3" transform="translate(49.885 31.919)"/>
            <path id="Fill-88" d="M52.841 30.581a.87.87 0 0 0-.2-.655 1.021 1.021 0 0 0-.7-.19 1.094 1.094 0 0 0-.661.19.821.821 0 0 0-.326.53.343.343 0 0 0 .162.4 3.454 3.454 0 0 0 .921.3 2.918 2.918 0 0 1 1.393.587.882.882 0 0 1 .228.65 2.177 2.177 0 0 1-.052.446 1.874 1.874 0 0 1-.848 1.236 3.08 3.08 0 0 1-1.725.446 2.122 2.122 0 0 1-1.515-.454 1.339 1.339 0 0 1-.369-1.015 2.189 2.189 0 0 1 .022-.351h1.083a.768.768 0 0 0 .166.679 1.038 1.038 0 0 0 .746.221 1.705 1.705 0 0 0 .844-.184.732.732 0 0 0 .39-.509.4.4 0 0 0-.124-.439 2.461 2.461 0 0 0-.81-.281 3.458 3.458 0 0 1-1.5-.6.855.855 0 0 1-.254-.664 2.08 2.08 0 0 1 .86-1.647 2.8 2.8 0 0 1 1.637-.452 1.866 1.866 0 0 1 1.388.45 1.4 1.4 0 0 1 .368 1.022l-.019.291z" class="cls-3" transform="translate(53.686 31.168)"/>
            <path id="Fill-89" d="M53.944 32.863a.965.965 0 0 0 .715-.328 1.721 1.721 0 0 0 .424-.867c.017-.079.031-.158.041-.238a1.477 1.477 0 0 0 .011-.223.851.851 0 0 0-.179-.577.638.638 0 0 0-.507-.2.966.966 0 0 0-.708.328 1.648 1.648 0 0 0-.42.841 1.476 1.476 0 0 0 .034.939.6.6 0 0 0 .586.33zM52.7 29.612h.993l-.115.576.081-.085a1.82 1.82 0 0 1 1.311-.6 1.236 1.236 0 0 1 .955.372 1.465 1.465 0 0 1 .344 1.033 4.367 4.367 0 0 1-.081.709 2.909 2.909 0 0 1-.793 1.511 1.854 1.854 0 0 1-1.331.6 1.072 1.072 0 0 1-1.031-.568l-.007-.015L52.6 35.2h-1.058z" class="cls-3" transform="translate(56.303 31.92)"/>
            <path id="Fill-90" d="M57.038 31.2v-.14a.711.711 0 0 0-.164-.515.667.667 0 0 0-.5-.168.885.885 0 0 0-.7.328 1.676 1.676 0 0 0-.276.494zm-1.269 2.535a1.758 1.758 0 0 1-1.2-.371 1.353 1.353 0 0 1-.418-1.068c0-.1.01-.2.022-.317s.029-.228.051-.343a2.811 2.811 0 0 1 .827-1.565 2.171 2.171 0 0 1 1.516-.565 1.6 1.6 0 0 1 1.142.369 1.43 1.43 0 0 1 .387 1.085 3.482 3.482 0 0 1-.023.38 3.84 3.84 0 0 1-.073.42l-.028.129h-2.745l-.007.052a1.572 1.572 0 0 0-.015.21.653.653 0 0 0 .743.731 1.033 1.033 0 0 0 .489-.116.692.692 0 0 0 .312-.3h1.072a2.17 2.17 0 0 1-.834.93 2.269 2.269 0 0 1-1.217.343z" class="cls-3" transform="translate(59.149 31.919)"/>
            <path id="Fill-91" d="M60.069 32.162a2.336 2.336 0 0 1-.838 1.147 2.207 2.207 0 0 1-1.332.424 1.566 1.566 0 0 1-1.109-.361 1.36 1.36 0 0 1-.386-1.044 2.945 2.945 0 0 1 .02-.334 3.84 3.84 0 0 1 .057-.36 2.8 2.8 0 0 1 .831-1.564 2.195 2.195 0 0 1 1.527-.565 1.526 1.526 0 0 1 1.161.406 1.208 1.208 0 0 1 .317.885l-.015.247h-1.076a.8.8 0 0 0-.15-.5.534.534 0 0 0-.421-.153.852.852 0 0 0-.682.323 2.224 2.224 0 0 0-.406.968q-.022.122-.037.245a1.968 1.968 0 0 0-.015.227.817.817 0 0 0 .146.52.5.5 0 0 0 .413.184.9.9 0 0 0 .558-.194 1.067 1.067 0 0 0 .368-.501z" class="cls-3" transform="translate(61.613 31.919)"/>
            <path id="Fill-92" d="M59.753 28.862h1.068l-.2.967h-1.067zm-.335 1.454h1.057l-.829 4.014h-1.058z" class="cls-3" transform="translate(64 31.216)"/>
            <path id="Fill-93" d="M62.362 32.165l.1-.487a1.227 1.227 0 0 1-.332.125l-.427.085a1.654 1.654 0 0 0-.6.214.585.585 0 0 0-.234.376q-.007.037-.011.074a.7.7 0 0 0 0 .07.324.324 0 0 0 .109.262.456.456 0 0 0 .3.092 1.2 1.2 0 0 0 .888-.4.7.7 0 0 0 .125-.184.908.908 0 0 0 .085-.229m-1.548 1.568a1.176 1.176 0 0 1-.775-.234.8.8 0 0 1-.282-.651 1.4 1.4 0 0 1 .009-.151 1.456 1.456 0 0 1 .028-.166 1.481 1.481 0 0 1 .494-.841 1.792 1.792 0 0 1 .958-.417l.891-.125a1.044 1.044 0 0 0 .236-.063.459.459 0 0 0 .214-.161.4.4 0 0 0 .07-.245.284.284 0 0 0-.1-.225.835.835 0 0 0-.494-.107.758.758 0 0 0-.464.142.914.914 0 0 0-.3.423h-1a1.649 1.649 0 0 1 .678-1.048 2.393 2.393 0 0 1 1.374-.358 1.69 1.69 0 0 1 1.123.3.739.739 0 0 1 .255.6 1.137 1.137 0 0 1-.03.277l-.453 2.19a1.234 1.234 0 0 0-.033.408.249.249 0 0 0 .129.2l-.03.144h-1.143a1.871 1.871 0 0 1 .007-.469 1.966 1.966 0 0 1-1.366.579" class="cls-3" transform="translate(65.277 31.919)"/>
            <path id="Fill-94" d="M63.148 28.883h1.058l-1.12 5.424h-1.058z" class="cls-3" transform="translate(67.758 31.239)"/>
            <path id="Fill-95" d="M64.411 28.862h1.069l-.2.967h-1.068zm-.336 1.454h1.058L64.3 34.33h-1.053z" class="cls-3" transform="translate(69.089 31.216)"/>
            <path id="Fill-96" d="M67.373 30.815a.5.5 0 0 0-.133-.4.7.7 0 0 0-.458-.116 1.077 1.077 0 0 0-.481.092.364.364 0 0 0-.215.255.223.223 0 0 0 .125.24 2.112 2.112 0 0 0 .564.2 2.876 2.876 0 0 1 1.2.494.692.692 0 0 1 .224.539 1.259 1.259 0 0 1-.03.262 1.517 1.517 0 0 1-.683.989 2.45 2.45 0 0 1-1.375.365 2.049 2.049 0 0 1-1.326-.347 1 1 0 0 1-.339-.8l.019-.243h1.079a.451.451 0 0 0 .156.448 1.07 1.07 0 0 0 .635.146.941.941 0 0 0 .478-.109.444.444 0 0 0 .227-.3.229.229 0 0 0-.133-.248 2.414 2.414 0 0 0-.613-.206 2.713 2.713 0 0 1-1.164-.472.679.679 0 0 1-.206-.517 1.3 1.3 0 0 1 .03-.266 1.5 1.5 0 0 1 .636-.959 2.146 2.146 0 0 1 1.254-.354 1.935 1.935 0 0 1 1.256.332.9.9 0 0 1 .313.727 1.661 1.661 0 0 1-.021.251z" class="cls-3" transform="translate(70.397 31.92)"/>
            <path id="Fill-97" d="M68.369 34.164a9.672 9.672 0 0 1-.652.018 1.126 1.126 0 0 1-.772-.193.707.707 0 0 1-.1-.666l.5-2.446H66.8l.158-.756h.549l.221-1.081h1.057l-.221 1.081h.636l-.158.756h-.637l-.468 2.265a.163.163 0 0 0 .055.182.512.512 0 0 0 .284.057l.254-.015z" class="cls-3" transform="translate(72.97 31.411)"/>
        </g>
    </g>
</svg>
